# xmcd
#
# Track frame offsets: 
#        150
#        24091
#        40465
#        57391
#        84757
#        115164
#        133810
#        149197
#        161162
#        179213
#        203515
#        220074
#        257555
#
# Disc length: 3739 seconds
#
# Revision: 0
# Processed by: cddbd v1.5.1PL2 Copyright (c) Steve Scherf et al.
# Submitted via: ExactAudioCopy v0.95b3
#
DISCID=bf0e990d
DTITLE=Pat Travers - P. T. Power Trio 2
DYEAR=2006
DGENRE=Blues
TTITLE0=You Are the Music
TTITLE1=I'm Yours, She's Mine
TTITLE2=Stone Cold Fever
TTITLE3=Rock Me Baby
TTITLE4=Green Eyed Lady
TTITLE5=Black Night
TTITLE6=Aimless Lady
TTITLE7=Swlabr
TTITLE8=Red Skies
TTITLE9=Ready For Love
TTITLE10=Rock the Nation
TTITLE11=How Many More Times
TTITLE12=Keep Yourself Alive
EXTD=
EXTT0=
EXTT1=
EXTT2=
EXTT3=
EXTT4=
EXTT5=
EXTT6=
EXTT7=
EXTT8=
EXTT9=
EXTT10=
EXTT11=
EXTT12=
PLAYORDER=
